{"glyphs":{"0":{"ha":550,"x_min":43,"x_max":507,"o":"m 43 233 l 43 739 q 103 920 43 856 q 275 983 163 983 q 447 920 387 983 q 507 739 507 856 l 507 233 q 447 53 507 117 q 275 -11 387 -11 q 103 53 163 -11 q 43 233 43 117 m 196 224 q 275 127 196 127 q 354 224 354 127 l 354 749 q 275 844 354 844 q 196 749 196 844 l 196 224 z "},"1":{"ha":550,"x_min":150,"x_max":421,"o":"m 150 742 l 150 850 q 210 857 184 850 q 253 874 237 864 q 282 902 269 884 q 302 934 296 920 q 318 972 309 949 l 421 972 l 421 0 l 268 0 l 268 742 l 150 742 z "},"2":{"ha":550,"x_min":56,"x_max":511,"o":"m 56 0 l 56 119 q 72 228 56 177 q 116 318 89 279 q 175 392 142 356 q 239 465 207 429 q 298 538 271 500 q 341 626 325 576 q 358 733 358 676 q 338 820 358 795 q 279 844 319 844 q 200 749 200 844 l 200 644 l 56 644 l 56 739 q 114 920 56 857 q 283 983 172 983 q 453 920 395 983 q 511 739 511 857 q 494 620 511 677 q 451 518 477 562 q 392 434 424 474 q 327 358 359 393 q 268 292 294 323 q 224 226 241 260 q 207 160 207 192 q 208 139 207 146 l 497 139 l 497 0 l 56 0 z "},"3":{"ha":550,"x_min":47,"x_max":503,"o":"m 47 233 l 47 314 l 192 314 l 192 224 q 271 127 192 127 q 330 152 310 127 q 350 237 350 176 l 350 314 q 327 409 350 380 q 250 437 303 437 l 199 437 l 199 576 l 258 576 q 327 600 304 576 q 350 679 350 623 l 350 733 q 330 820 350 795 q 271 844 310 844 q 192 749 192 844 l 192 686 l 47 686 l 47 739 q 106 920 47 857 q 275 983 164 983 q 445 920 387 983 q 503 739 503 857 l 503 714 q 396 514 503 558 q 503 310 503 468 l 503 233 q 445 53 503 116 q 275 -11 387 -11 q 106 53 164 -11 q 47 233 47 116 z "},"4":{"ha":550,"x_min":20,"x_max":536,"o":"m 20 176 l 20 315 l 297 972 l 464 972 l 464 315 l 536 315 l 536 176 l 464 176 l 464 0 l 314 0 l 314 176 l 20 176 m 160 315 l 314 315 l 314 681 l 160 315 z "},"5":{"ha":550,"x_min":49,"x_max":504,"o":"m 49 233 l 49 314 l 193 314 l 193 224 q 272 129 193 129 q 351 224 351 129 l 351 437 q 272 533 351 533 q 193 437 193 533 l 193 408 l 49 408 l 77 972 l 479 972 l 479 833 l 214 833 l 201 602 q 335 672 244 672 q 461 615 419 672 q 504 450 504 559 l 504 233 q 446 53 504 116 q 277 -11 388 -11 q 107 53 165 -11 q 49 233 49 116 z "},"6":{"ha":550,"x_min":46,"x_max":510,"o":"m 46 233 l 46 730 q 279 983 46 983 q 449 920 391 983 q 507 739 507 857 l 507 714 l 363 714 l 363 749 q 283 844 363 844 q 219 818 240 844 q 199 725 199 791 l 199 547 q 340 633 239 633 q 467 576 425 633 q 510 411 510 519 l 510 233 q 450 53 510 117 q 278 -11 390 -11 q 106 53 166 -11 q 46 233 46 117 m 199 224 q 278 129 199 129 q 357 224 357 129 l 357 399 q 278 494 357 494 q 199 399 199 494 l 199 224 z "},"7":{"ha":550,"x_min":46,"x_max":504,"o":"m 46 833 l 46 972 l 504 972 l 504 839 l 279 0 l 126 0 l 350 833 l 46 833 z "},"8":{"ha":550,"x_min":36,"x_max":514,"o":"m 36 233 l 36 310 q 131 513 36 459 q 36 708 36 564 l 36 739 q 98 920 36 856 q 275 983 160 983 q 452 920 391 983 q 514 739 514 856 l 514 708 q 419 513 514 566 q 514 310 514 459 l 514 233 q 452 53 514 117 q 275 -11 391 -11 q 98 53 160 -11 q 36 233 36 117 m 189 237 q 212 152 189 177 q 275 127 235 127 q 338 152 315 127 q 361 237 360 176 l 361 328 q 275 437 361 437 q 189 328 189 437 l 189 237 m 189 679 q 275 576 189 576 q 361 679 361 576 l 361 733 q 338 820 361 795 q 275 844 316 844 q 212 819 235 844 q 189 733 189 794 l 189 679 z "},"9":{"ha":550,"x_min":40,"x_max":504,"o":"m 40 561 l 40 739 q 100 920 40 856 q 272 983 160 983 q 444 920 384 983 q 504 739 504 856 l 504 241 q 271 -11 504 -11 q 101 53 159 -11 q 43 233 43 116 l 43 258 l 187 258 l 187 224 q 267 127 187 127 q 330 154 309 127 q 351 248 351 181 l 351 425 q 210 339 311 339 q 83 396 125 339 q 40 561 40 453 m 193 574 q 272 478 193 478 q 351 574 351 478 l 351 749 q 272 843 351 843 q 193 749 193 843 l 193 574 z "},"\u0000":{"ha":1389,"x_min":0,"x_max":0,"o":""},"\r":{"ha":1389,"x_min":0,"x_max":0,"o":""}," ":{"ha":215,"x_min":0,"x_max":0,"o":""},"!":{"ha":264,"x_min":56,"x_max":208,"o":"m 56 567 l 56 972 l 208 972 l 208 567 l 189 215 l 75 215 l 56 567 m 58 0 l 58 147 l 205 147 l 205 0 l 58 0 z "},"\"":{"ha":451,"x_min":56,"x_max":396,"o":"m 56 972 l 203 972 l 180 686 l 77 686 l 56 972 m 249 972 l 396 972 l 374 686 l 269 686 l 249 972 z "},"#":{"ha":569,"x_min":21,"x_max":549,"o":"m 21 278 l 32 386 l 100 386 l 126 640 l 57 640 l 68 749 l 138 749 l 161 972 l 286 972 l 262 749 l 353 749 l 376 972 l 501 972 l 478 749 l 549 749 l 538 640 l 467 640 l 440 386 l 511 386 l 500 278 l 429 278 l 400 0 l 275 0 l 304 278 l 214 278 l 184 0 l 60 0 l 89 278 l 21 278 m 225 386 l 315 386 l 342 640 l 252 640 l 225 386 z "},"$":{"ha":550,"x_min":47,"x_max":503,"o":"m 47 248 l 47 314 l 192 314 l 192 237 q 271 143 192 143 q 350 237 350 143 q 333 313 350 278 q 291 373 317 347 q 233 425 264 399 q 169 480 201 451 q 111 542 137 509 q 68 622 85 574 q 52 725 52 669 q 212 962 52 926 l 212 1035 l 338 1035 l 338 962 q 460 885 418 945 q 501 725 501 825 l 501 694 l 357 694 l 357 734 q 281 831 357 831 q 204 734 204 831 q 221 659 204 694 q 263 598 237 625 q 321 547 290 572 q 385 492 353 521 q 443 431 417 464 q 486 351 469 398 q 503 248 503 304 q 460 86 503 148 q 338 8 418 25 l 338 -62 l 212 -62 l 212 8 q 89 86 131 25 q 47 248 47 147 z "},"%":{"ha":871,"x_min":47,"x_max":823,"o":"m 47 504 l 47 823 q 85 939 47 899 q 195 979 123 979 q 304 939 266 979 q 342 823 342 899 l 342 504 q 304 389 342 429 q 195 349 266 349 q 85 389 123 349 q 47 504 47 429 m 144 497 q 195 436 144 436 q 244 497 244 436 l 244 831 q 195 892 244 892 q 144 831 144 892 l 144 497 m 195 0 l 578 972 l 668 972 l 285 0 l 195 0 m 529 149 l 529 468 q 567 584 529 543 q 676 624 605 624 q 785 584 747 624 q 823 468 823 543 l 823 149 q 785 33 823 73 q 676 -7 747 -7 q 567 33 605 -7 q 529 149 529 73 m 627 142 q 676 81 627 81 q 726 142 726 81 l 726 475 q 676 536 726 536 q 627 475 627 536 l 627 142 z "},"&":{"ha":574,"x_min":57,"x_max":561,"o":"m 57 211 l 57 310 q 163 514 57 467 q 57 714 57 559 l 57 732 q 114 911 57 849 q 285 972 172 972 l 460 972 l 460 833 l 288 833 q 230 811 250 833 q 210 739 210 789 l 210 679 q 233 600 210 623 q 301 576 256 576 l 368 576 l 368 685 l 521 685 l 521 576 l 561 576 l 561 437 l 521 437 l 521 118 q 538 0 521 39 l 382 0 q 368 77 371 31 q 227 -11 328 -11 q 100 46 142 -11 q 57 211 57 103 m 210 224 q 289 127 210 127 q 368 212 364 127 l 368 437 l 310 437 q 233 409 257 437 q 210 314 210 380 l 210 224 z "},"'":{"ha":250,"x_min":52,"x_max":199,"o":"m 52 972 l 199 972 l 176 686 l 72 686 l 52 972 z "},"(":{"ha":349,"x_min":65,"x_max":326,"o":"m 65 212 l 65 760 q 115 924 65 876 q 279 972 164 972 l 326 972 l 326 847 l 289 847 q 235 828 251 847 q 218 760 218 810 l 218 212 q 235 143 218 162 q 289 125 251 125 l 326 125 l 326 0 l 279 0 q 115 48 164 0 q 65 212 65 96 z "},")":{"ha":349,"x_min":22,"x_max":283,"o":"m 22 0 l 22 125 l 60 125 q 114 143 98 125 q 131 212 131 162 l 131 760 q 114 828 131 810 q 60 847 98 847 l 22 847 l 22 972 l 69 972 q 234 924 184 972 q 283 760 283 876 l 283 212 q 234 48 283 96 q 69 0 184 0 l 22 0 z "},"*":{"ha":550,"x_min":3,"x_max":547,"o":"m 3 729 l 41 847 l 249 743 l 212 972 l 338 972 l 301 743 l 509 847 l 547 729 l 319 690 l 482 528 l 382 454 l 275 660 l 168 454 l 68 528 l 231 690 l 3 729 z "},"+":{"ha":550,"x_min":35,"x_max":515,"o":"m 35 432 l 35 541 l 221 541 l 221 728 l 329 728 l 329 541 l 515 541 l 515 432 l 329 432 l 329 241 l 221 241 l 221 432 l 35 432 z "},",":{"ha":258,"x_min":56,"x_max":203,"o":"m 56 0 l 56 147 l 203 147 l 203 16 l 136 -139 l 74 -139 l 114 0 l 56 0 z "},"-":{"ha":374,"x_min":49,"x_max":326,"o":"m 49 416 l 49 555 l 326 555 l 326 416 l 49 416 z "},".":{"ha":258,"x_min":56,"x_max":203,"o":"m 56 0 l 56 147 l 203 147 l 203 0 l 56 0 z "},"/":{"ha":529,"x_min":7,"x_max":522,"o":"m 7 0 l 390 972 l 522 972 l 139 0 l 7 0 z "},":":{"ha":258,"x_min":56,"x_max":203,"o":"m 56 0 l 56 147 l 203 147 l 203 0 l 56 0 m 56 529 l 56 676 l 203 676 l 203 529 l 56 529 z "},";":{"ha":258,"x_min":56,"x_max":203,"o":"m 56 0 l 56 147 l 203 147 l 203 16 l 136 -139 l 74 -139 l 114 0 l 56 0 m 56 529 l 56 676 l 203 676 l 203 529 l 56 529 z "},"<":{"ha":550,"x_min":41,"x_max":494,"o":"m 41 432 l 41 541 l 494 707 l 494 597 l 183 486 l 494 375 l 494 265 l 41 432 z "},"=":{"ha":550,"x_min":49,"x_max":501,"o":"m 49 319 l 49 428 l 501 428 l 501 319 l 49 319 m 49 545 l 49 653 l 501 653 l 501 545 l 49 545 z "},">":{"ha":550,"x_min":56,"x_max":509,"o":"m 56 265 l 56 375 l 367 486 l 56 597 l 56 707 l 509 541 l 509 432 l 56 265 z "},"?":{"ha":500,"x_min":28,"x_max":478,"o":"m 28 643 l 28 739 q 85 920 28 857 q 253 983 142 983 q 421 920 363 983 q 478 739 478 857 q 468 643 478 688 q 442 566 458 599 q 407 505 426 534 q 369 449 388 475 q 333 396 349 422 q 307 338 317 370 q 297 269 297 305 q 302 215 297 239 l 167 215 q 158 275 158 243 q 175 382 158 334 q 217 466 193 430 q 266 538 241 501 q 308 628 290 574 q 325 749 325 682 q 306 822 325 799 q 249 844 287 844 q 172 749 172 844 l 172 643 l 28 643 m 160 0 l 160 147 l 307 147 l 307 0 l 160 0 z "},"@":{"ha":957,"x_min":33,"x_max":932,"o":"m 33 403 q 53 600 33 507 q 115 771 73 692 q 217 907 157 850 q 361 996 277 964 q 546 1028 446 1028 q 698 1007 631 1028 q 808 949 765 986 q 880 860 852 913 q 920 749 908 808 q 932 619 932 690 q 914 442 932 521 q 868 315 896 363 q 803 234 840 267 q 731 189 766 202 q 661 176 696 176 q 539 268 547 176 q 404 184 496 180 q 301 241 332 186 q 279 399 269 296 l 294 539 q 348 694 304 642 q 464 745 391 747 q 578 659 549 743 l 586 739 l 720 739 l 677 338 q 705 302 673 302 q 755 331 733 302 q 790 407 777 360 q 810 507 803 454 q 817 616 817 561 q 748 831 817 753 q 541 909 680 909 q 261 773 357 909 q 164 396 164 637 q 245 129 164 224 q 488 33 326 33 q 639 54 571 33 q 775 127 707 74 l 764 -5 q 630 -66 699 -49 q 479 -83 562 -83 q 278 -48 365 -83 q 139 52 192 -13 q 59 205 85 117 q 33 403 33 293 m 414 406 q 473 314 404 316 q 526 334 506 313 q 551 401 547 355 l 566 533 q 552 591 570 572 q 505 611 535 611 q 452 591 472 612 q 427 524 431 570 l 414 406 z "},"A":{"ha":565,"x_min":16,"x_max":550,"o":"m 16 0 l 171 972 l 395 972 l 550 0 l 396 0 l 370 176 l 182 176 l 155 0 l 16 0 m 201 309 l 349 309 l 275 800 l 201 309 z "},"B":{"ha":564,"x_min":56,"x_max":528,"o":"m 56 0 l 56 972 l 286 972 q 458 918 404 972 q 513 749 513 863 l 513 714 q 414 518 513 565 q 528 310 528 474 l 528 231 q 469 59 528 118 q 296 0 410 0 l 56 0 m 208 139 l 296 139 q 355 161 336 139 q 375 235 375 182 l 375 319 q 352 412 375 386 q 277 437 330 437 l 208 437 l 208 139 m 208 576 l 268 576 q 336 600 313 576 q 359 679 359 623 l 359 733 q 341 809 359 785 q 282 833 323 833 l 208 833 l 208 576 z "},"C":{"ha":536,"x_min":43,"x_max":498,"o":"m 43 233 l 43 739 q 101 920 43 857 q 271 983 159 983 q 440 920 382 983 q 498 739 498 857 l 498 644 l 354 644 l 354 749 q 275 844 354 844 q 196 749 196 844 l 196 224 q 275 129 196 129 q 354 224 354 129 l 354 363 l 498 363 l 498 233 q 440 53 498 116 q 271 -11 382 -11 q 101 53 159 -11 q 43 233 43 116 z "},"D":{"ha":566,"x_min":56,"x_max":525,"o":"m 56 0 l 56 972 l 297 972 q 468 911 410 972 q 525 732 525 849 l 525 240 q 468 61 525 123 q 297 0 410 0 l 56 0 m 208 139 l 294 139 q 352 161 332 139 q 372 233 372 183 l 372 739 q 352 811 372 789 q 294 833 332 833 l 208 833 l 208 139 z "},"E":{"ha":511,"x_min":56,"x_max":472,"o":"m 56 0 l 56 972 l 472 972 l 472 833 l 208 833 l 208 562 l 418 562 l 418 424 l 208 424 l 208 139 l 472 139 l 472 0 l 56 0 z "},"F":{"ha":477,"x_min":56,"x_max":460,"o":"m 56 0 l 56 972 l 460 972 l 460 833 l 208 833 l 208 541 l 406 541 l 406 401 l 208 401 l 208 0 l 56 0 z "},"G":{"ha":541,"x_min":43,"x_max":498,"o":"m 43 233 l 43 739 q 101 920 43 857 q 271 983 159 983 q 440 920 382 983 q 498 739 498 857 l 498 644 l 354 644 l 354 749 q 275 844 354 844 q 196 749 196 844 l 196 224 q 275 129 196 129 q 354 224 354 129 l 354 403 l 285 403 l 285 542 l 498 542 l 498 233 q 440 53 498 116 q 271 -11 382 -11 q 101 53 159 -11 q 43 233 43 116 z "},"H":{"ha":593,"x_min":56,"x_max":538,"o":"m 56 0 l 56 972 l 208 972 l 208 555 l 382 555 l 382 972 l 538 972 l 538 0 l 382 0 l 382 416 l 208 416 l 208 0 l 56 0 z "},"I":{"ha":264,"x_min":56,"x_max":208,"o":"m 56 0 l 56 972 l 208 972 l 208 0 l 56 0 z "},"J":{"ha":355,"x_min":14,"x_max":307,"o":"m 14 0 l 14 139 q 66 138 31 138 q 131 158 108 138 q 154 231 154 178 l 154 972 l 307 972 l 307 241 q 87 -3 307 -3 q 14 0 39 -3 z "},"K":{"ha":574,"x_min":56,"x_max":561,"o":"m 56 0 l 56 972 l 208 972 l 208 549 l 408 972 l 561 972 l 349 539 l 561 0 l 404 0 l 256 387 l 208 298 l 208 0 l 56 0 z "},"L":{"ha":471,"x_min":56,"x_max":460,"o":"m 56 0 l 56 972 l 208 972 l 208 139 l 460 139 l 460 0 l 56 0 z "},"M":{"ha":751,"x_min":54,"x_max":696,"o":"m 54 0 l 54 972 l 267 972 l 379 282 l 484 972 l 696 972 l 696 0 l 551 0 l 551 697 l 446 0 l 301 0 l 187 688 l 187 0 l 54 0 z "},"N":{"ha":593,"x_min":54,"x_max":539,"o":"m 54 0 l 54 972 l 245 972 l 403 390 l 403 972 l 539 972 l 539 0 l 382 0 l 192 704 l 192 0 l 54 0 z "},"O":{"ha":550,"x_min":43,"x_max":507,"o":"m 43 233 l 43 739 q 103 920 43 856 q 275 983 163 983 q 447 920 387 983 q 507 739 507 856 l 507 233 q 447 53 507 117 q 275 -11 387 -11 q 103 53 163 -11 q 43 233 43 117 m 196 224 q 275 127 196 127 q 354 224 354 127 l 354 749 q 275 844 354 844 q 196 749 196 844 l 196 224 z "},"P":{"ha":530,"x_min":56,"x_max":509,"o":"m 56 0 l 56 972 l 281 972 q 451 911 394 972 q 509 732 509 849 l 509 606 q 451 427 509 488 q 281 366 394 366 l 208 366 l 208 0 l 56 0 m 208 504 l 281 504 q 337 525 319 504 q 355 596 355 546 l 355 742 q 337 813 355 792 q 281 833 319 833 l 208 833 l 208 504 z "},"Q":{"ha":550,"x_min":43,"x_max":534,"o":"m 43 233 l 43 739 q 103 920 43 856 q 275 983 163 983 q 447 920 387 983 q 507 739 507 856 l 507 233 q 478 97 507 151 q 492 80 483 84 q 521 77 500 77 l 534 77 l 534 -60 l 514 -60 q 382 7 416 -60 q 275 -11 332 -11 q 103 53 163 -11 q 43 233 43 117 m 196 224 q 275 127 196 127 q 354 224 354 127 l 354 749 q 275 844 354 844 q 196 749 196 844 l 196 224 z "},"R":{"ha":558,"x_min":56,"x_max":530,"o":"m 56 0 l 56 972 l 286 972 q 458 918 404 972 q 513 749 513 863 l 513 672 q 412 475 513 522 q 491 400 467 452 q 514 268 514 349 l 514 118 q 530 0 514 37 l 375 0 q 368 25 370 17 q 363 58 366 34 q 361 119 361 82 l 361 272 q 337 368 361 339 q 261 396 313 396 l 208 396 l 208 0 l 56 0 m 208 534 l 268 534 q 336 558 313 534 q 359 637 359 581 l 359 733 q 341 809 359 785 q 282 833 323 833 l 208 833 l 208 534 z "},"S":{"ha":519,"x_min":32,"x_max":488,"o":"m 32 233 l 32 293 l 176 293 l 176 224 q 256 129 176 129 q 335 224 335 129 q 318 300 335 264 q 276 365 302 336 q 218 423 250 394 q 154 483 186 452 q 95 550 121 515 q 53 634 69 585 q 36 739 36 683 q 93 920 36 857 q 261 983 151 983 q 429 920 372 983 q 486 739 486 857 l 486 708 l 342 708 l 342 749 q 265 844 342 844 q 208 822 227 844 q 189 749 189 799 q 206 672 189 708 q 249 607 222 636 q 307 550 275 578 q 370 489 338 521 q 428 422 402 458 q 471 338 454 387 q 488 233 488 290 q 429 53 488 116 q 260 -11 371 -11 q 90 53 149 -11 q 32 233 32 116 z "},"T":{"ha":494,"x_min":11,"x_max":484,"o":"m 11 833 l 11 972 l 484 972 l 484 833 l 323 833 l 323 0 l 171 0 l 171 833 l 11 833 z "},"U":{"ha":553,"x_min":49,"x_max":504,"o":"m 49 232 l 49 972 l 201 972 l 201 222 q 281 127 201 127 q 359 222 359 127 l 359 972 l 504 972 l 504 232 q 446 51 504 115 q 277 -12 388 -12 q 107 51 165 -12 q 49 232 49 115 z "},"V":{"ha":558,"x_min":16,"x_max":543,"o":"m 16 972 l 170 972 l 286 179 l 403 972 l 543 972 l 393 0 l 165 0 l 16 972 z "},"W":{"ha":782,"x_min":21,"x_max":761,"o":"m 21 972 l 170 972 l 252 205 l 325 972 l 472 972 l 549 200 l 628 972 l 761 972 l 653 0 l 450 0 l 395 518 l 339 0 l 129 0 l 21 972 z "},"X":{"ha":597,"x_min":21,"x_max":576,"o":"m 21 0 l 192 500 l 32 972 l 191 972 l 306 614 l 424 972 l 566 972 l 406 500 l 576 0 l 415 0 l 290 385 l 164 0 l 21 0 z "},"Y":{"ha":550,"x_min":5,"x_max":545,"o":"m 5 972 l 165 972 l 282 529 l 399 972 l 545 972 l 351 322 l 351 0 l 199 0 l 199 322 l 5 972 z "},"Z":{"ha":513,"x_min":32,"x_max":479,"o":"m 32 0 l 32 136 l 322 833 l 46 833 l 46 972 l 479 972 l 479 836 l 189 139 l 479 139 l 479 0 l 32 0 z "},"[":{"ha":349,"x_min":65,"x_max":318,"o":"m 65 0 l 65 972 l 318 972 l 318 847 l 218 847 l 218 125 l 318 125 l 318 0 l 65 0 z "},"\\":{"ha":529,"x_min":7,"x_max":522,"o":"m 7 972 l 139 972 l 522 0 l 390 0 l 7 972 z "},"]":{"ha":349,"x_min":31,"x_max":283,"o":"m 31 0 l 31 125 l 131 125 l 131 847 l 31 847 l 31 972 l 283 972 l 283 0 l 31 0 z "},"^":{"ha":550,"x_min":28,"x_max":522,"o":"m 28 542 l 221 972 l 329 972 l 522 542 l 400 542 l 275 833 l 150 542 l 28 542 z "},"_":{"ha":694,"x_min":0,"x_max":694,"o":"m 0 -14 l 694 -14 l 694 -125 l 0 -125 l 0 -14 z "},"`":{"ha":347,"x_min":61,"x_max":313,"o":"m 61 1178 l 218 1178 l 313 1023 l 203 1023 l 61 1178 z "},"a":{"ha":565,"x_min":16,"x_max":550,"o":"m 16 0 l 171 972 l 395 972 l 550 0 l 396 0 l 370 176 l 182 176 l 155 0 l 16 0 m 201 309 l 349 309 l 275 800 l 201 309 z "},"b":{"ha":564,"x_min":56,"x_max":528,"o":"m 56 0 l 56 972 l 286 972 q 458 918 404 972 q 513 749 513 863 l 513 714 q 414 518 513 565 q 528 310 528 474 l 528 231 q 469 59 528 118 q 296 0 410 0 l 56 0 m 208 139 l 296 139 q 355 161 336 139 q 375 235 375 182 l 375 319 q 352 412 375 386 q 277 437 330 437 l 208 437 l 208 139 m 208 576 l 268 576 q 336 600 313 576 q 359 679 359 623 l 359 733 q 341 809 359 785 q 282 833 323 833 l 208 833 l 208 576 z "},"c":{"ha":536,"x_min":43,"x_max":498,"o":"m 43 233 l 43 739 q 101 920 43 857 q 271 983 159 983 q 440 920 382 983 q 498 739 498 857 l 498 644 l 354 644 l 354 749 q 275 844 354 844 q 196 749 196 844 l 196 224 q 275 129 196 129 q 354 224 354 129 l 354 363 l 498 363 l 498 233 q 440 53 498 116 q 271 -11 382 -11 q 101 53 159 -11 q 43 233 43 116 z "},"d":{"ha":566,"x_min":56,"x_max":525,"o":"m 56 0 l 56 972 l 297 972 q 468 911 410 972 q 525 732 525 849 l 525 240 q 468 61 525 123 q 297 0 410 0 l 56 0 m 208 139 l 294 139 q 352 161 332 139 q 372 233 372 183 l 372 739 q 352 811 372 789 q 294 833 332 833 l 208 833 l 208 139 z "},"e":{"ha":511,"x_min":56,"x_max":472,"o":"m 56 0 l 56 972 l 472 972 l 472 833 l 208 833 l 208 562 l 418 562 l 418 424 l 208 424 l 208 139 l 472 139 l 472 0 l 56 0 z "},"f":{"ha":477,"x_min":56,"x_max":460,"o":"m 56 0 l 56 972 l 460 972 l 460 833 l 208 833 l 208 541 l 406 541 l 406 401 l 208 401 l 208 0 l 56 0 z "},"g":{"ha":541,"x_min":43,"x_max":498,"o":"m 43 233 l 43 739 q 101 920 43 857 q 271 983 159 983 q 440 920 382 983 q 498 739 498 857 l 498 644 l 354 644 l 354 749 q 275 844 354 844 q 196 749 196 844 l 196 224 q 275 129 196 129 q 354 224 354 129 l 354 403 l 285 403 l 285 542 l 498 542 l 498 233 q 440 53 498 116 q 271 -11 382 -11 q 101 53 159 -11 q 43 233 43 116 z "},"h":{"ha":593,"x_min":56,"x_max":538,"o":"m 56 0 l 56 972 l 208 972 l 208 555 l 382 555 l 382 972 l 538 972 l 538 0 l 382 0 l 382 416 l 208 416 l 208 0 l 56 0 z "},"i":{"ha":264,"x_min":56,"x_max":208,"o":"m 56 0 l 56 972 l 208 972 l 208 0 l 56 0 z "},"j":{"ha":355,"x_min":14,"x_max":307,"o":"m 14 0 l 14 139 q 66 138 31 138 q 131 158 108 138 q 154 231 154 178 l 154 972 l 307 972 l 307 241 q 87 -3 307 -3 q 14 0 39 -3 z "},"k":{"ha":574,"x_min":56,"x_max":561,"o":"m 56 0 l 56 972 l 208 972 l 208 549 l 408 972 l 561 972 l 349 539 l 561 0 l 404 0 l 256 387 l 208 298 l 208 0 l 56 0 z "},"l":{"ha":471,"x_min":56,"x_max":460,"o":"m 56 0 l 56 972 l 208 972 l 208 139 l 460 139 l 460 0 l 56 0 z "},"m":{"ha":751,"x_min":54,"x_max":696,"o":"m 54 0 l 54 972 l 267 972 l 379 282 l 484 972 l 696 972 l 696 0 l 551 0 l 551 697 l 446 0 l 301 0 l 187 688 l 187 0 l 54 0 z "},"n":{"ha":593,"x_min":54,"x_max":539,"o":"m 54 0 l 54 972 l 245 972 l 403 390 l 403 972 l 539 972 l 539 0 l 382 0 l 192 704 l 192 0 l 54 0 z "},"o":{"ha":550,"x_min":43,"x_max":507,"o":"m 43 233 l 43 739 q 103 920 43 856 q 275 983 163 983 q 447 920 387 983 q 507 739 507 856 l 507 233 q 447 53 507 117 q 275 -11 387 -11 q 103 53 163 -11 q 43 233 43 117 m 196 224 q 275 127 196 127 q 354 224 354 127 l 354 749 q 275 844 354 844 q 196 749 196 844 l 196 224 z "},"p":{"ha":524,"x_min":56,"x_max":509,"o":"m 56 0 l 56 972 l 281 972 q 451 911 394 972 q 509 732 509 849 l 509 606 q 451 427 509 488 q 281 366 394 366 l 208 366 l 208 0 l 56 0 m 208 504 l 281 504 q 337 525 319 504 q 355 596 355 546 l 355 742 q 337 813 355 792 q 281 833 319 833 l 208 833 l 208 504 z "},"q":{"ha":550,"x_min":43,"x_max":534,"o":"m 43 233 l 43 739 q 103 920 43 856 q 275 983 163 983 q 447 920 387 983 q 507 739 507 856 l 507 233 q 478 97 507 151 q 492 80 483 84 q 521 77 500 77 l 534 77 l 534 -60 l 514 -60 q 382 7 416 -60 q 275 -11 332 -11 q 103 53 163 -11 q 43 233 43 117 m 196 224 q 275 127 196 127 q 354 224 354 127 l 354 749 q 275 844 354 844 q 196 749 196 844 l 196 224 z "},"r":{"ha":558,"x_min":56,"x_max":530,"o":"m 56 0 l 56 972 l 286 972 q 458 918 404 972 q 513 749 513 863 l 513 672 q 412 475 513 522 q 491 400 467 452 q 514 268 514 349 l 514 118 q 530 0 514 37 l 375 0 q 368 25 370 17 q 363 58 366 34 q 361 119 361 82 l 361 272 q 337 368 361 339 q 261 396 313 396 l 208 396 l 208 0 l 56 0 m 208 534 l 268 534 q 336 558 313 534 q 359 637 359 581 l 359 733 q 341 809 359 785 q 282 833 323 833 l 208 833 l 208 534 z "},"s":{"ha":519,"x_min":32,"x_max":488,"o":"m 32 233 l 32 293 l 176 293 l 176 224 q 256 129 176 129 q 335 224 335 129 q 318 300 335 264 q 276 365 302 336 q 218 423 250 394 q 154 483 186 452 q 95 550 121 515 q 53 634 69 585 q 36 739 36 683 q 93 920 36 857 q 261 983 151 983 q 429 920 372 983 q 486 739 486 857 l 486 708 l 342 708 l 342 749 q 265 844 342 844 q 208 822 227 844 q 189 749 189 799 q 206 672 189 708 q 249 607 222 636 q 307 550 275 578 q 370 489 338 521 q 428 422 402 458 q 471 338 454 387 q 488 233 488 290 q 429 53 488 116 q 260 -11 371 -11 q 90 53 149 -11 q 32 233 32 116 z "},"t":{"ha":494,"x_min":11,"x_max":484,"o":"m 11 833 l 11 972 l 484 972 l 484 833 l 323 833 l 323 0 l 171 0 l 171 833 l 11 833 z "},"u":{"ha":553,"x_min":49,"x_max":504,"o":"m 49 232 l 49 972 l 201 972 l 201 222 q 281 127 201 127 q 359 222 359 127 l 359 972 l 504 972 l 504 232 q 446 51 504 115 q 277 -12 388 -12 q 107 51 165 -12 q 49 232 49 115 z "},"v":{"ha":558,"x_min":16,"x_max":543,"o":"m 16 972 l 170 972 l 286 179 l 403 972 l 543 972 l 393 0 l 165 0 l 16 972 z "},"w":{"ha":782,"x_min":21,"x_max":761,"o":"m 21 972 l 170 972 l 252 205 l 325 972 l 472 972 l 549 200 l 628 972 l 761 972 l 653 0 l 450 0 l 395 518 l 339 0 l 129 0 l 21 972 z "},"x":{"ha":597,"x_min":21,"x_max":576,"o":"m 21 0 l 192 500 l 32 972 l 191 972 l 306 614 l 424 972 l 566 972 l 406 500 l 576 0 l 415 0 l 290 385 l 164 0 l 21 0 z "},"y":{"ha":550,"x_min":5,"x_max":545,"o":"m 5 972 l 165 972 l 282 529 l 399 972 l 545 972 l 351 322 l 351 0 l 199 0 l 199 322 l 5 972 z "},"z":{"ha":513,"x_min":32,"x_max":479,"o":"m 32 0 l 32 136 l 322 833 l 46 833 l 46 972 l 479 972 l 479 836 l 189 139 l 479 139 l 479 0 l 32 0 z "},"{":{"ha":357,"x_min":16,"x_max":335,"o":"m 16 424 l 16 549 q 73 566 58 549 q 92 632 88 583 l 103 818 q 149 933 108 895 q 257 972 190 972 l 335 972 l 335 847 l 313 847 q 258 826 275 847 q 239 749 241 805 l 232 610 q 142 486 227 508 q 232 363 227 465 l 239 224 q 258 146 241 168 q 313 125 275 125 l 335 125 l 335 0 l 257 0 q 149 39 190 0 q 103 154 108 77 l 92 340 q 73 407 88 389 q 16 424 58 424 z "},"|":{"ha":694,"x_min":292,"x_max":416,"o":"m 292 -90 l 292 1063 l 416 1063 l 416 -90 l 292 -90 z "},"}":{"ha":357,"x_min":22,"x_max":342,"o":"m 22 0 l 22 125 l 45 125 q 99 146 82 125 q 118 224 115 168 l 125 363 q 215 486 130 465 q 125 610 130 508 l 118 749 q 99 826 115 805 q 45 847 82 847 l 22 847 l 22 972 l 100 972 q 208 933 167 972 q 254 818 250 895 l 265 632 q 284 566 269 583 q 342 549 299 549 l 342 424 q 284 407 299 424 q 265 340 269 389 l 254 154 q 208 39 250 77 q 100 0 167 0 l 22 0 z "},"~":{"ha":550,"x_min":11,"x_max":539,"o":"m 11 461 q 96 559 58 532 q 176 586 134 586 q 231 573 201 586 q 282 544 260 559 q 330 514 304 528 q 375 501 356 501 q 415 517 398 501 q 467 581 433 533 l 539 505 q 455 411 492 436 q 374 386 417 386 q 319 399 349 386 q 268 428 290 412 q 220 457 246 444 q 175 471 194 471 q 134 455 152 471 q 83 392 116 439 l 11 461 z "}," ":{"ha":215,"x_min":0,"x_max":0,"o":""},"¢":{"ha":550,"x_min":50,"x_max":505,"o":"m 50 289 l 50 684 q 91 843 50 782 q 212 921 132 903 l 212 993 l 338 993 l 338 922 q 505 684 505 888 l 505 616 l 361 616 l 361 693 q 282 789 361 789 q 203 693 203 789 l 203 279 q 282 184 203 184 q 361 279 361 184 l 361 390 l 505 390 l 505 289 q 463 127 505 188 q 338 50 420 66 l 338 -21 l 212 -21 l 212 52 q 91 129 132 68 q 50 289 50 189 z "},"£":{"ha":550,"x_min":41,"x_max":505,"o":"m 41 0 l 41 134 q 134 176 97 134 q 174 292 172 219 l 61 292 l 61 410 l 154 410 q 125 477 144 436 q 92 548 106 517 q 67 629 78 578 q 56 739 56 680 q 113 920 56 857 q 281 983 170 983 q 448 920 391 983 q 505 739 505 857 l 505 643 l 361 643 l 361 749 q 342 822 361 799 q 285 844 323 844 q 208 749 208 844 q 219 637 208 689 q 244 554 231 585 q 276 482 258 523 q 301 410 293 441 l 469 410 l 469 292 l 311 292 q 233 139 302 194 l 496 139 l 496 0 l 41 0 z "},"¥":{"ha":550,"x_min":9,"x_max":541,"o":"m 9 972 l 170 972 l 282 543 l 395 972 l 541 972 l 363 376 l 478 376 l 478 300 l 351 300 l 351 237 l 478 237 l 478 161 l 351 161 l 351 0 l 199 0 l 199 161 l 72 161 l 72 237 l 199 237 l 199 300 l 72 300 l 72 376 l 186 376 l 9 972 z "},"¨":{"ha":347,"x_min":1,"x_max":346,"o":"m 1 1023 l 1 1157 l 135 1157 l 135 1023 l 1 1023 m 212 1023 l 212 1157 l 346 1157 l 346 1023 l 212 1023 z "},"©":{"ha":1022,"x_min":28,"x_max":994,"o":"m 65 287 q 46 333 65 287 q 28 486 28 380 q 65 686 28 593 q 166 844 102 779 q 320 946 231 909 q 511 983 410 983 q 703 946 613 983 q 856 843 792 909 q 957 685 920 778 q 994 486 994 593 q 957 287 994 380 q 856 129 920 195 q 703 26 792 64 q 511 -11 613 -11 q 320 26 410 -11 q 166 129 231 64 q 65 287 102 194 m 177 692 q 152 646 177 692 q 127 486 127 600 q 177 280 127 372 q 315 137 227 189 q 511 86 403 86 q 707 137 620 86 q 845 280 795 189 q 895 486 895 372 q 845 692 895 600 q 707 835 795 784 q 511 886 620 886 q 315 835 403 886 q 177 692 227 784 m 349 350 l 349 619 q 388 747 349 703 q 505 791 427 791 q 623 747 583 791 q 663 619 663 703 l 663 570 l 562 570 l 562 628 q 509 694 562 694 q 454 628 454 694 l 454 345 q 509 279 454 279 q 562 345 562 279 l 562 428 l 663 428 l 663 350 q 623 224 663 268 q 505 180 583 180 q 388 224 428 180 q 349 350 349 268 z "},"«":{"ha":493,"x_min":22,"x_max":471,"o":"m 22 488 l 109 844 l 245 844 l 161 488 l 245 109 l 109 109 l 22 488 m 248 488 l 334 844 l 471 844 l 386 488 l 471 109 l 334 109 l 248 488 z "},"­":{"ha":374,"x_min":49,"x_max":326,"o":"m 49 416 l 49 555 l 326 555 l 326 416 l 49 416 z "},"®":{"ha":1022,"x_min":28,"x_max":994,"o":"m 65 287 q 46 333 65 287 q 28 486 28 380 q 65 686 28 593 q 166 844 102 779 q 320 946 231 909 q 511 983 410 983 q 703 946 613 983 q 856 843 792 909 q 957 685 920 778 q 994 486 994 593 q 957 287 994 380 q 856 129 920 195 q 703 26 792 64 q 511 -11 613 -11 q 320 26 410 -11 q 166 129 231 64 q 65 287 102 194 m 177 692 q 152 646 177 692 q 127 486 127 600 q 177 280 127 372 q 315 137 227 189 q 511 86 403 86 q 707 137 620 86 q 845 280 795 189 q 895 486 895 372 q 845 692 895 600 q 707 835 795 784 q 511 886 620 886 q 315 835 403 886 q 177 692 227 784 m 358 189 l 358 783 l 519 783 q 638 745 600 783 q 676 628 676 707 l 676 615 q 604 478 676 510 q 660 426 643 462 q 676 335 676 391 l 676 271 q 689 189 676 219 l 581 189 q 571 272 571 215 l 571 336 q 554 403 571 383 q 500 422 537 422 l 464 422 l 464 189 l 358 189 m 464 519 l 507 519 q 555 535 538 519 q 571 590 571 551 l 571 615 q 557 669 571 652 q 514 686 544 686 l 464 686 l 464 519 z "},"´":{"ha":347,"x_min":37,"x_max":282,"o":"m 37 1023 l 132 1178 l 282 1178 l 140 1023 l 37 1023 z "},"¸":{"ha":347,"x_min":36,"x_max":310,"o":"m 36 -110 l 139 -110 l 139 -121 q 170 -149 139 -149 q 204 -115 204 -149 q 192 -87 204 -96 q 154 -79 180 -79 l 140 -79 l 140 20 l 207 20 l 207 -54 q 285 -69 260 -54 q 310 -119 310 -84 q 300 -164 310 -146 q 270 -190 290 -182 q 227 -201 250 -199 q 170 -204 204 -204 q 71 -186 106 -204 q 36 -123 36 -168 l 36 -110 z "},"»":{"ha":493,"x_min":22,"x_max":471,"o":"m 22 109 l 107 488 l 22 844 l 160 844 l 245 488 l 160 109 l 22 109 m 248 109 l 332 488 l 248 844 l 385 844 l 471 488 l 385 109 l 248 109 z "},"ˆ":{"ha":347,"x_min":-18,"x_max":367,"o":"m -18 1023 l 106 1178 l 243 1178 l 367 1023 l 236 1023 l 174 1100 l 113 1023 l -18 1023 z "},"˚":{"ha":347,"x_min":62,"x_max":285,"o":"m 95 1052 q 78 1068 95 1052 q 62 1131 62 1084 q 95 1210 62 1177 q 174 1242 127 1242 q 253 1210 220 1242 q 285 1131 285 1177 q 253 1052 285 1084 q 174 1019 220 1019 q 95 1052 127 1019 m 144 1160 q 138 1154 144 1160 q 132 1131 132 1148 q 144 1101 132 1113 q 174 1089 156 1089 q 203 1101 191 1089 q 215 1131 215 1113 q 203 1160 215 1148 q 174 1173 191 1173 q 144 1160 156 1173 z "},"˜":{"ha":347,"x_min":-14,"x_max":363,"o":"m -14 1069 q 104 1164 22 1164 q 173 1146 136 1164 q 229 1129 211 1129 q 264 1137 250 1129 q 289 1169 277 1145 l 363 1118 q 244 1023 327 1023 q 175 1041 213 1023 q 119 1059 138 1059 q 85 1050 98 1059 q 60 1018 72 1042 l -14 1069 z "},"Ё":{"ha":511,"x_min":56,"x_max":472,"o":"m 56 0 l 56 972 l 472 972 l 472 833 l 208 833 l 208 562 l 418 562 l 418 424 l 208 424 l 208 139 l 472 139 l 472 0 l 56 0 m 90 1023 l 90 1157 l 224 1157 l 224 1023 l 90 1023 m 301 1023 l 301 1157 l 435 1157 l 435 1023 l 301 1023 z "},"А":{"ha":565,"x_min":16,"x_max":550,"o":"m 16 0 l 171 972 l 395 972 l 550 0 l 396 0 l 370 176 l 182 176 l 155 0 l 16 0 m 201 309 l 349 309 l 275 800 l 201 309 z "},"Б":{"ha":576,"x_min":57,"x_max":529,"o":"m 57 0 l 57 972 l 485 972 l 485 833 l 210 833 l 210 585 l 298 585 q 471 523 412 585 q 529 345 529 462 l 529 240 q 471 61 529 123 q 298 0 412 0 l 57 0 m 210 139 l 298 139 q 357 160 337 139 q 376 231 376 181 l 376 354 q 357 425 376 404 q 298 446 337 446 l 210 446 l 210 139 z "},"В":{"ha":564,"x_min":56,"x_max":528,"o":"m 56 0 l 56 972 l 286 972 q 458 918 404 972 q 513 749 513 863 l 513 714 q 414 518 513 565 q 528 310 528 474 l 528 231 q 469 59 528 118 q 296 0 410 0 l 56 0 m 208 139 l 296 139 q 355 161 336 139 q 375 235 375 182 l 375 319 q 352 412 375 386 q 277 437 330 437 l 208 437 l 208 139 m 208 576 l 268 576 q 336 600 313 576 q 359 679 359 623 l 359 733 q 341 809 359 785 q 282 833 323 833 l 208 833 l 208 576 z "},"Г":{"ha":507,"x_min":57,"x_max":460,"o":"m 57 0 l 57 972 l 460 972 l 460 833 l 210 833 l 210 0 l 57 0 z "},"Д":{"ha":677,"x_min":22,"x_max":648,"o":"m 22 -131 l 22 136 l 82 136 q 109 189 101 160 q 119 262 117 218 l 154 972 l 582 972 l 582 136 l 648 136 l 648 -131 l 497 -131 l 497 0 l 171 0 l 171 -131 l 22 -131 m 227 136 l 427 136 l 427 833 l 297 833 l 269 265 q 256 183 267 212 q 227 136 246 155 z "},"Е":{"ha":511,"x_min":56,"x_max":472,"o":"m 56 0 l 56 972 l 472 972 l 472 833 l 208 833 l 208 562 l 418 562 l 418 424 l 208 424 l 208 139 l 472 139 l 472 0 l 56 0 z "},"Ж":{"ha":838,"x_min":11,"x_max":829,"o":"m 11 0 l 200 574 l 11 972 l 164 972 l 345 579 l 345 972 l 496 972 l 496 579 l 676 972 l 829 972 l 642 578 l 829 0 l 672 0 l 533 431 l 496 357 l 496 0 l 345 0 l 345 357 l 307 432 l 168 0 l 11 0 z "},"З":{"ha":550,"x_min":47,"x_max":503,"o":"m 47 233 l 47 340 l 192 340 l 192 224 q 271 127 192 127 q 330 152 310 127 q 350 237 350 176 l 350 314 q 327 409 350 380 q 250 437 303 437 l 212 437 l 212 576 l 258 576 q 327 600 304 576 q 350 679 350 623 l 350 733 q 330 820 350 795 q 271 844 310 844 q 191 749 191 844 l 191 669 l 50 669 l 50 742 q 107 921 50 859 q 275 983 164 983 q 445 920 387 983 q 503 739 503 857 l 503 714 q 396 514 503 558 q 503 310 503 468 l 503 233 q 445 53 503 116 q 275 -11 387 -11 q 106 53 164 -11 q 47 233 47 116 z "},"И":{"ha":593,"x_min":56,"x_max":541,"o":"m 56 0 l 56 972 l 192 972 l 192 357 l 248 571 l 372 972 l 541 972 l 541 0 l 403 0 l 403 685 l 340 446 l 212 0 l 56 0 z "},"Й":{"ha":595,"x_min":56,"x_max":541,"o":"m 56 0 l 212 0 l 340 446 l 403 685 l 403 0 l 541 0 l 541 972 l 372 972 l 248 571 l 192 357 l 192 972 l 56 972 l 56 0 m 140 1189 l 235 1189 q 253 1139 237 1152 q 300 1125 268 1125 q 350 1139 333 1125 q 370 1189 367 1152 l 463 1189 q 421 1076 463 1116 q 300 1035 380 1035 q 182 1075 222 1035 q 140 1189 142 1116 z "},"К":{"ha":574,"x_min":56,"x_max":561,"o":"m 56 0 l 56 972 l 208 972 l 208 549 l 408 972 l 561 972 l 349 539 l 561 0 l 404 0 l 256 387 l 208 298 l 208 0 l 56 0 z "},"Л":{"ha":625,"x_min":12,"x_max":564,"o":"m 12 -1 l 12 138 q 56 140 41 138 q 84 154 72 143 q 101 184 96 164 q 107 237 106 203 l 132 972 l 564 972 l 564 0 l 408 0 l 408 833 l 275 833 l 258 245 q 202 56 254 113 q 36 -1 151 -1 l 12 -1 z "},"М":{"ha":751,"x_min":54,"x_max":696,"o":"m 54 0 l 54 972 l 267 972 l 379 282 l 484 972 l 696 972 l 696 0 l 551 0 l 551 697 l 446 0 l 301 0 l 187 688 l 187 0 l 54 0 z "},"Н":{"ha":593,"x_min":56,"x_max":538,"o":"m 56 0 l 56 972 l 208 972 l 208 555 l 382 555 l 382 972 l 538 972 l 538 0 l 382 0 l 382 416 l 208 416 l 208 0 l 56 0 z "},"О":{"ha":550,"x_min":43,"x_max":507,"o":"m 43 233 l 43 739 q 103 920 43 856 q 275 983 163 983 q 447 920 387 983 q 507 739 507 856 l 507 233 q 447 53 507 117 q 275 -11 387 -11 q 103 53 163 -11 q 43 233 43 117 m 196 224 q 275 127 196 127 q 354 224 354 127 l 354 749 q 275 844 354 844 q 196 749 196 844 l 196 224 z "},"П":{"ha":593,"x_min":56,"x_max":538,"o":"m 56 0 l 56 972 l 538 972 l 538 0 l 382 0 l 382 833 l 208 833 l 208 0 l 56 0 z "},"Р":{"ha":524,"x_min":56,"x_max":509,"o":"m 56 0 l 56 972 l 281 972 q 451 911 394 972 q 509 732 509 849 l 509 606 q 451 427 509 488 q 281 366 394 366 l 208 366 l 208 0 l 56 0 m 208 504 l 281 504 q 337 525 319 504 q 355 596 355 546 l 355 742 q 337 813 355 792 q 281 833 319 833 l 208 833 l 208 504 z "},"С":{"ha":536,"x_min":43,"x_max":498,"o":"m 43 233 l 43 739 q 101 920 43 857 q 271 983 159 983 q 440 920 382 983 q 498 739 498 857 l 498 644 l 354 644 l 354 749 q 275 844 354 844 q 196 749 196 844 l 196 224 q 275 129 196 129 q 354 224 354 129 l 354 363 l 498 363 l 498 233 q 440 53 498 116 q 271 -11 382 -11 q 101 53 159 -11 q 43 233 43 116 z "},"Т":{"ha":494,"x_min":11,"x_max":484,"o":"m 11 833 l 11 972 l 484 972 l 484 833 l 323 833 l 323 0 l 171 0 l 171 833 l 11 833 z "},"У":{"ha":566,"x_min":11,"x_max":558,"o":"m 11 972 l 163 972 l 245 640 l 293 412 l 329 639 l 399 972 l 558 972 l 395 248 q 369 153 383 192 q 332 81 355 114 q 276 30 309 48 q 196 3 243 12 q 86 -1 149 -5 l 86 135 q 180 147 149 131 q 221 214 212 163 l 222 222 l 11 972 z "},"Ф":{"ha":809,"x_min":43,"x_max":762,"o":"m 43 350 l 43 615 q 100 794 43 732 q 271 856 157 856 l 328 856 l 328 972 l 478 972 l 478 856 l 534 856 q 705 794 648 856 q 762 615 762 732 l 762 350 q 705 171 762 233 q 534 110 648 110 l 478 110 l 478 0 l 328 0 l 328 110 l 271 110 q 100 171 157 110 q 43 350 43 233 m 195 340 q 271 243 195 243 l 328 243 l 328 721 l 271 721 q 214 698 233 721 q 195 625 195 675 l 195 340 m 478 243 l 534 243 q 611 340 611 243 l 611 625 q 534 721 611 721 l 478 721 l 478 243 z "},"Х":{"ha":597,"x_min":21,"x_max":576,"o":"m 21 0 l 192 500 l 32 972 l 191 972 l 306 614 l 424 972 l 566 972 l 406 500 l 576 0 l 415 0 l 290 385 l 164 0 l 21 0 z "},"Ц":{"ha":631,"x_min":56,"x_max":604,"o":"m 56 0 l 56 972 l 208 972 l 208 139 l 382 139 l 382 972 l 538 972 l 538 136 l 604 136 l 604 -131 l 456 -131 l 456 0 l 56 0 z "},"Ч":{"ha":576,"x_min":46,"x_max":519,"o":"m 46 561 l 46 972 l 199 972 l 199 574 q 224 503 199 527 q 288 478 249 478 q 346 504 325 478 q 367 578 367 530 l 367 972 l 519 972 l 519 0 l 367 0 l 367 392 q 306 352 343 366 q 236 338 269 338 q 95 398 144 338 q 46 561 46 458 z "},"Ш":{"ha":833,"x_min":56,"x_max":778,"o":"m 56 0 l 56 972 l 208 972 l 208 139 l 340 139 l 340 972 l 493 972 l 493 139 l 625 139 l 625 972 l 778 972 l 778 0 l 56 0 z "},"Щ":{"ha":873,"x_min":56,"x_max":846,"o":"m 56 0 l 56 972 l 208 972 l 208 139 l 340 139 l 340 972 l 493 972 l 493 139 l 625 139 l 625 972 l 778 972 l 778 136 l 846 136 l 846 -131 l 697 -131 l 697 0 l 56 0 z "},"Ъ":{"ha":610,"x_min":11,"x_max":574,"o":"m 11 833 l 11 972 l 273 972 l 273 607 l 346 607 q 516 546 459 607 q 574 367 574 484 l 574 240 q 516 61 574 123 q 346 0 459 0 l 121 0 l 121 833 l 11 833 m 273 139 l 346 139 q 402 160 384 139 q 421 231 421 180 l 421 376 q 402 447 421 427 q 346 468 384 468 l 273 468 l 273 139 z "},"Ы":{"ha":804,"x_min":56,"x_max":749,"o":"m 56 0 l 56 972 l 208 972 l 208 607 l 281 607 q 451 546 394 607 q 509 367 509 484 l 509 240 q 451 61 509 123 q 281 0 394 0 l 56 0 m 208 139 l 281 139 q 337 160 319 139 q 355 231 355 180 l 355 376 q 337 447 355 427 q 281 468 319 468 l 208 468 l 208 139 m 596 0 l 596 972 l 749 972 l 749 0 l 596 0 z "},"Ь":{"ha":544,"x_min":56,"x_max":509,"o":"m 56 0 l 56 972 l 208 972 l 208 607 l 281 607 q 451 546 394 607 q 509 367 509 484 l 509 240 q 451 61 509 123 q 281 0 394 0 l 56 0 m 208 139 l 281 139 q 337 160 319 139 q 355 231 355 180 l 355 376 q 337 447 355 427 q 281 468 319 468 l 208 468 l 208 139 z "},"Э":{"ha":536,"x_min":36,"x_max":492,"o":"m 36 233 l 36 349 l 180 349 l 180 224 q 260 129 180 129 q 339 224 339 129 l 339 433 l 199 433 l 199 572 l 339 572 l 339 749 q 260 844 339 844 q 180 749 180 844 l 180 657 l 39 657 l 39 739 q 96 920 39 857 q 264 983 153 983 q 433 920 375 983 q 492 739 492 857 l 492 233 q 433 53 492 116 q 264 -11 375 -11 q 94 53 153 -11 q 36 233 36 116 z "},"Ю":{"ha":831,"x_min":56,"x_max":786,"o":"m 56 0 l 56 972 l 208 972 l 208 555 l 322 555 l 322 739 q 382 920 322 856 q 554 983 442 983 q 726 920 666 983 q 786 739 786 856 l 786 233 q 726 53 786 117 q 554 -11 666 -11 q 382 53 442 -11 q 322 233 322 117 l 322 416 l 208 416 l 208 0 l 56 0 m 475 224 q 554 127 475 127 q 633 224 633 127 l 633 749 q 554 844 633 844 q 475 749 475 844 l 475 224 z "},"Я":{"ha":558,"x_min":28,"x_max":503,"o":"m 28 0 q 45 118 45 39 l 45 268 q 68 400 45 349 q 146 475 91 452 q 46 672 46 522 l 46 749 q 100 918 46 863 q 272 972 155 972 l 503 972 l 503 0 l 350 0 l 350 396 l 297 396 q 221 368 245 396 q 197 272 197 339 l 197 119 q 195 58 197 82 q 191 25 193 34 q 183 0 189 17 l 28 0 m 199 637 q 222 558 199 581 q 290 534 245 534 l 350 534 l 350 833 l 277 833 q 217 809 236 833 q 199 733 199 785 l 199 637 z "},"а":{"ha":565,"x_min":16,"x_max":550,"o":"m 16 0 l 171 972 l 395 972 l 550 0 l 396 0 l 370 176 l 182 176 l 155 0 l 16 0 m 201 309 l 349 309 l 275 800 l 201 309 z "},"б":{"ha":576,"x_min":57,"x_max":529,"o":"m 57 0 l 57 972 l 485 972 l 485 833 l 210 833 l 210 585 l 298 585 q 471 523 412 585 q 529 345 529 462 l 529 240 q 471 61 529 123 q 298 0 412 0 l 57 0 m 210 139 l 298 139 q 357 160 337 139 q 376 231 376 181 l 376 354 q 357 425 376 404 q 298 446 337 446 l 210 446 l 210 139 z "},"в":{"ha":564,"x_min":56,"x_max":528,"o":"m 56 0 l 56 972 l 286 972 q 458 918 404 972 q 513 749 513 863 l 513 714 q 414 518 513 565 q 528 310 528 474 l 528 231 q 469 59 528 118 q 296 0 410 0 l 56 0 m 208 139 l 296 139 q 355 161 336 139 q 375 235 375 182 l 375 319 q 352 412 375 386 q 277 437 330 437 l 208 437 l 208 139 m 208 576 l 268 576 q 336 600 313 576 q 359 679 359 623 l 359 733 q 341 809 359 785 q 282 833 323 833 l 208 833 l 208 576 z "},"г":{"ha":507,"x_min":57,"x_max":460,"o":"m 57 0 l 57 972 l 460 972 l 460 833 l 210 833 l 210 0 l 57 0 z "},"д":{"ha":677,"x_min":22,"x_max":648,"o":"m 22 -131 l 22 136 l 82 136 q 109 189 101 160 q 119 262 117 218 l 154 972 l 582 972 l 582 136 l 648 136 l 648 -131 l 497 -131 l 497 0 l 171 0 l 171 -131 l 22 -131 m 227 136 l 427 136 l 427 833 l 297 833 l 269 265 q 256 183 267 212 q 227 136 246 155 z "},"е":{"ha":511,"x_min":56,"x_max":472,"o":"m 56 0 l 56 972 l 472 972 l 472 833 l 208 833 l 208 562 l 418 562 l 418 424 l 208 424 l 208 139 l 472 139 l 472 0 l 56 0 z "},"ж":{"ha":838,"x_min":11,"x_max":829,"o":"m 11 0 l 200 574 l 11 972 l 164 972 l 345 579 l 345 972 l 496 972 l 496 579 l 676 972 l 829 972 l 642 578 l 829 0 l 672 0 l 533 431 l 496 357 l 496 0 l 345 0 l 345 357 l 307 432 l 168 0 l 11 0 z "},"з":{"ha":550,"x_min":47,"x_max":503,"o":"m 47 233 l 47 340 l 192 340 l 192 224 q 271 127 192 127 q 330 152 310 127 q 350 237 350 176 l 350 314 q 327 409 350 380 q 250 437 303 437 l 212 437 l 212 576 l 258 576 q 327 600 304 576 q 350 679 350 623 l 350 733 q 330 820 350 795 q 271 844 310 844 q 191 749 191 844 l 191 669 l 50 669 l 50 742 q 107 921 50 859 q 275 983 164 983 q 445 920 387 983 q 503 739 503 857 l 503 714 q 396 514 503 558 q 503 310 503 468 l 503 233 q 445 53 503 116 q 275 -11 387 -11 q 106 53 164 -11 q 47 233 47 116 z "},"и":{"ha":593,"x_min":56,"x_max":541,"o":"m 56 0 l 56 972 l 192 972 l 192 357 l 248 571 l 372 972 l 541 972 l 541 0 l 403 0 l 403 685 l 340 446 l 212 0 l 56 0 z "},"й":{"ha":595,"x_min":56,"x_max":541,"o":"m 56 0 l 212 0 l 340 446 l 403 685 l 403 0 l 541 0 l 541 972 l 372 972 l 248 571 l 192 357 l 192 972 l 56 972 l 56 0 m 140 1189 l 235 1189 q 253 1139 237 1152 q 300 1125 268 1125 q 350 1139 333 1125 q 370 1189 367 1152 l 463 1189 q 421 1076 463 1116 q 300 1035 380 1035 q 182 1075 222 1035 q 140 1189 142 1116 z "},"к":{"ha":574,"x_min":56,"x_max":561,"o":"m 56 0 l 56 972 l 208 972 l 208 549 l 408 972 l 561 972 l 349 539 l 561 0 l 404 0 l 256 387 l 208 298 l 208 0 l 56 0 z "},"л":{"ha":625,"x_min":12,"x_max":564,"o":"m 12 -1 l 12 138 q 56 140 41 138 q 84 154 72 143 q 101 184 96 164 q 107 237 106 203 l 132 972 l 564 972 l 564 0 l 408 0 l 408 833 l 275 833 l 258 245 q 202 56 254 113 q 36 -1 151 -1 l 12 -1 z "},"м":{"ha":751,"x_min":54,"x_max":696,"o":"m 54 0 l 54 972 l 267 972 l 379 282 l 484 972 l 696 972 l 696 0 l 551 0 l 551 697 l 446 0 l 301 0 l 187 688 l 187 0 l 54 0 z "},"н":{"ha":593,"x_min":56,"x_max":538,"o":"m 56 0 l 56 972 l 208 972 l 208 555 l 382 555 l 382 972 l 538 972 l 538 0 l 382 0 l 382 416 l 208 416 l 208 0 l 56 0 z "},"о":{"ha":550,"x_min":43,"x_max":507,"o":"m 43 233 l 43 739 q 103 920 43 856 q 275 983 163 983 q 447 920 387 983 q 507 739 507 856 l 507 233 q 447 53 507 117 q 275 -11 387 -11 q 103 53 163 -11 q 43 233 43 117 m 196 224 q 275 127 196 127 q 354 224 354 127 l 354 749 q 275 844 354 844 q 196 749 196 844 l 196 224 z "},"п":{"ha":593,"x_min":56,"x_max":538,"o":"m 56 0 l 56 972 l 538 972 l 538 0 l 382 0 l 382 833 l 208 833 l 208 0 l 56 0 z "},"р":{"ha":524,"x_min":56,"x_max":509,"o":"m 56 0 l 56 972 l 281 972 q 451 911 394 972 q 509 732 509 849 l 509 606 q 451 427 509 488 q 281 366 394 366 l 208 366 l 208 0 l 56 0 m 208 504 l 281 504 q 337 525 319 504 q 355 596 355 546 l 355 742 q 337 813 355 792 q 281 833 319 833 l 208 833 l 208 504 z "},"с":{"ha":536,"x_min":43,"x_max":498,"o":"m 43 233 l 43 739 q 101 920 43 857 q 271 983 159 983 q 440 920 382 983 q 498 739 498 857 l 498 644 l 354 644 l 354 749 q 275 844 354 844 q 196 749 196 844 l 196 224 q 275 129 196 129 q 354 224 354 129 l 354 363 l 498 363 l 498 233 q 440 53 498 116 q 271 -11 382 -11 q 101 53 159 -11 q 43 233 43 116 z "},"т":{"ha":494,"x_min":11,"x_max":484,"o":"m 11 833 l 11 972 l 484 972 l 484 833 l 323 833 l 323 0 l 171 0 l 171 833 l 11 833 z "},"у":{"ha":566,"x_min":11,"x_max":558,"o":"m 11 972 l 163 972 l 245 640 l 293 412 l 329 639 l 399 972 l 558 972 l 395 248 q 369 153 383 192 q 332 81 355 114 q 276 30 309 48 q 196 3 243 12 q 86 -1 149 -5 l 86 135 q 180 147 149 131 q 221 214 212 163 l 222 222 l 11 972 z "},"ф":{"ha":809,"x_min":43,"x_max":762,"o":"m 43 350 l 43 615 q 100 794 43 732 q 271 856 157 856 l 328 856 l 328 972 l 478 972 l 478 856 l 534 856 q 705 794 648 856 q 762 615 762 732 l 762 350 q 705 171 762 233 q 534 110 648 110 l 478 110 l 478 0 l 328 0 l 328 110 l 271 110 q 100 171 157 110 q 43 350 43 233 m 195 340 q 271 243 195 243 l 328 243 l 328 721 l 271 721 q 214 698 233 721 q 195 625 195 675 l 195 340 m 478 243 l 534 243 q 611 340 611 243 l 611 625 q 534 721 611 721 l 478 721 l 478 243 z "},"х":{"ha":597,"x_min":21,"x_max":576,"o":"m 21 0 l 192 500 l 32 972 l 191 972 l 306 614 l 424 972 l 566 972 l 406 500 l 576 0 l 415 0 l 290 385 l 164 0 l 21 0 z "},"ц":{"ha":631,"x_min":56,"x_max":604,"o":"m 56 0 l 56 972 l 208 972 l 208 139 l 382 139 l 382 972 l 538 972 l 538 136 l 604 136 l 604 -131 l 456 -131 l 456 0 l 56 0 z "},"ч":{"ha":576,"x_min":46,"x_max":519,"o":"m 46 561 l 46 972 l 199 972 l 199 574 q 224 503 199 527 q 288 478 249 478 q 346 504 325 478 q 367 578 367 530 l 367 972 l 519 972 l 519 0 l 367 0 l 367 392 q 306 352 343 366 q 236 338 269 338 q 95 398 144 338 q 46 561 46 458 z "},"ш":{"ha":833,"x_min":56,"x_max":778,"o":"m 56 0 l 56 972 l 208 972 l 208 139 l 340 139 l 340 972 l 493 972 l 493 139 l 625 139 l 625 972 l 778 972 l 778 0 l 56 0 z "},"щ":{"ha":873,"x_min":56,"x_max":846,"o":"m 56 0 l 56 972 l 208 972 l 208 139 l 340 139 l 340 972 l 493 972 l 493 139 l 625 139 l 625 972 l 778 972 l 778 136 l 846 136 l 846 -131 l 697 -131 l 697 0 l 56 0 z "},"ъ":{"ha":610,"x_min":11,"x_max":574,"o":"m 11 833 l 11 972 l 273 972 l 273 607 l 346 607 q 516 546 459 607 q 574 367 574 484 l 574 240 q 516 61 574 123 q 346 0 459 0 l 121 0 l 121 833 l 11 833 m 273 139 l 346 139 q 402 160 384 139 q 421 231 421 180 l 421 376 q 402 447 421 427 q 346 468 384 468 l 273 468 l 273 139 z "},"ы":{"ha":804,"x_min":56,"x_max":749,"o":"m 56 0 l 56 972 l 208 972 l 208 607 l 281 607 q 451 546 394 607 q 509 367 509 484 l 509 240 q 451 61 509 123 q 281 0 394 0 l 56 0 m 208 139 l 281 139 q 337 160 319 139 q 355 231 355 180 l 355 376 q 337 447 355 427 q 281 468 319 468 l 208 468 l 208 139 m 596 0 l 596 972 l 749 972 l 749 0 l 596 0 z "},"ь":{"ha":544,"x_min":56,"x_max":509,"o":"m 56 0 l 56 972 l 208 972 l 208 607 l 281 607 q 451 546 394 607 q 509 367 509 484 l 509 240 q 451 61 509 123 q 281 0 394 0 l 56 0 m 208 139 l 281 139 q 337 160 319 139 q 355 231 355 180 l 355 376 q 337 447 355 427 q 281 468 319 468 l 208 468 l 208 139 z "},"э":{"ha":536,"x_min":36,"x_max":492,"o":"m 36 233 l 36 349 l 180 349 l 180 224 q 260 129 180 129 q 339 224 339 129 l 339 433 l 199 433 l 199 572 l 339 572 l 339 749 q 260 844 339 844 q 180 749 180 844 l 180 657 l 39 657 l 39 739 q 96 920 39 857 q 264 983 153 983 q 433 920 375 983 q 492 739 492 857 l 492 233 q 433 53 492 116 q 264 -11 375 -11 q 94 53 153 -11 q 36 233 36 116 z "},"ю":{"ha":831,"x_min":56,"x_max":786,"o":"m 56 0 l 56 972 l 208 972 l 208 555 l 322 555 l 322 739 q 382 920 322 856 q 554 983 442 983 q 726 920 666 983 q 786 739 786 856 l 786 233 q 726 53 786 117 q 554 -11 666 -11 q 382 53 442 -11 q 322 233 322 117 l 322 416 l 208 416 l 208 0 l 56 0 m 475 224 q 554 127 475 127 q 633 224 633 127 l 633 749 q 554 844 633 844 q 475 749 475 844 l 475 224 z "},"я":{"ha":558,"x_min":28,"x_max":503,"o":"m 28 0 q 45 118 45 39 l 45 268 q 68 400 45 349 q 146 475 91 452 q 46 672 46 522 l 46 749 q 100 918 46 863 q 272 972 155 972 l 503 972 l 503 0 l 350 0 l 350 396 l 297 396 q 221 368 245 396 q 197 272 197 339 l 197 119 q 195 58 197 82 q 191 25 193 34 q 183 0 189 17 l 28 0 m 199 637 q 222 558 199 581 q 290 534 245 534 l 350 534 l 350 833 l 277 833 q 217 809 236 833 q 199 733 199 785 l 199 637 z "},"ё":{"ha":511,"x_min":56,"x_max":472,"o":"m 56 0 l 56 972 l 472 972 l 472 833 l 208 833 l 208 562 l 418 562 l 418 424 l 208 424 l 208 139 l 472 139 l 472 0 l 56 0 m 90 1023 l 90 1157 l 224 1157 l 224 1023 l 90 1023 m 301 1023 l 301 1157 l 435 1157 l 435 1023 l 301 1023 z "}," ":{"ha":621,"x_min":0,"x_max":0,"o":""}," ":{"ha":1242,"x_min":0,"x_max":0,"o":""}," ":{"ha":621,"x_min":0,"x_max":0,"o":""}," ":{"ha":1242,"x_min":0,"x_max":0,"o":""}," ":{"ha":414,"x_min":0,"x_max":0,"o":""}," ":{"ha":310,"x_min":0,"x_max":0,"o":""}," ":{"ha":207,"x_min":0,"x_max":0,"o":""}," ":{"ha":207,"x_min":0,"x_max":0,"o":""}," ":{"ha":155,"x_min":0,"x_max":0,"o":""}," ":{"ha":248,"x_min":0,"x_max":0,"o":""}," ":{"ha":68,"x_min":0,"x_max":0,"o":""},"‐":{"ha":374,"x_min":49,"x_max":326,"o":"m 49 416 l 49 555 l 326 555 l 326 416 l 49 416 z "},"‑":{"ha":374,"x_min":49,"x_max":326,"o":"m 49 416 l 49 555 l 326 555 l 326 416 l 49 416 z "},"‒":{"ha":374,"x_min":49,"x_max":326,"o":"m 49 416 l 49 555 l 326 555 l 326 416 l 49 416 z "},"–":{"ha":694,"x_min":0,"x_max":694,"o":"m 0 424 l 0 549 l 694 549 l 694 424 l 0 424 z "},"—":{"ha":1389,"x_min":0,"x_max":1389,"o":"m 0 424 l 0 549 l 1389 549 l 1389 424 l 0 424 z "},"‘":{"ha":258,"x_min":56,"x_max":203,"o":"m 56 686 l 56 818 l 122 972 l 184 972 l 144 833 l 203 833 l 203 686 l 56 686 z "},"’":{"ha":258,"x_min":56,"x_max":203,"o":"m 56 825 l 56 972 l 203 972 l 203 840 l 136 686 l 74 686 l 114 825 l 56 825 z "},"‚":{"ha":258,"x_min":56,"x_max":203,"o":"m 56 0 l 56 147 l 203 147 l 203 16 l 136 -139 l 74 -139 l 114 0 l 56 0 z "},"“":{"ha":460,"x_min":56,"x_max":406,"o":"m 56 686 l 56 818 l 122 972 l 184 972 l 144 833 l 203 833 l 203 686 l 56 686 m 258 686 l 258 818 l 325 972 l 387 972 l 347 833 l 406 833 l 406 686 l 258 686 z "},"”":{"ha":460,"x_min":56,"x_max":406,"o":"m 56 825 l 56 972 l 203 972 l 203 840 l 136 686 l 74 686 l 114 825 l 56 825 m 258 825 l 258 972 l 406 972 l 406 840 l 339 686 l 277 686 l 317 825 l 258 825 z "},"„":{"ha":460,"x_min":56,"x_max":406,"o":"m 56 0 l 56 147 l 203 147 l 203 16 l 136 -139 l 74 -139 l 114 0 l 56 0 m 258 0 l 258 147 l 406 147 l 406 16 l 339 -139 l 277 -139 l 317 0 l 258 0 z "},"•":{"ha":550,"x_min":82,"x_max":468,"o":"m 82 486 q 138 623 82 566 q 275 679 195 679 q 412 623 355 679 q 468 486 468 567 q 412 349 468 406 q 275 293 355 293 q 139 349 195 293 q 82 486 82 406 z "},"…":{"ha":663,"x_min":56,"x_max":608,"o":"m 56 0 l 56 147 l 203 147 l 203 0 l 56 0 m 258 0 l 258 147 l 406 147 l 406 0 l 258 0 m 461 0 l 461 147 l 608 147 l 608 0 l 461 0 z "}," ":{"ha":248,"x_min":0,"x_max":0,"o":""},"‹":{"ha":272,"x_min":22,"x_max":250,"o":"m 22 488 l 106 857 l 250 857 l 168 488 l 250 96 l 106 96 l 22 488 z "},"›":{"ha":272,"x_min":22,"x_max":250,"o":"m 22 96 l 104 488 l 22 857 l 167 857 l 250 488 l 167 96 l 22 96 z "}," ":{"ha":310,"x_min":0,"x_max":0,"o":""},"€":{"ha":550,"x_min":26,"x_max":513,"o":"m 26 375 l 26 452 l 65 452 l 65 528 l 26 528 l 26 604 l 65 604 l 65 739 q 121 920 65 857 q 289 983 178 983 q 456 920 400 983 q 513 739 513 857 l 513 668 l 368 668 l 368 749 q 350 822 368 800 q 293 844 331 844 q 237 822 256 844 q 218 749 218 800 l 218 604 l 432 604 l 432 528 l 218 528 l 218 452 l 432 452 l 432 375 l 218 375 l 218 224 q 237 151 218 173 q 293 129 255 129 q 350 151 331 129 q 368 224 368 174 l 368 311 l 513 311 l 513 233 q 456 52 513 115 q 289 -11 400 -11 q 121 52 178 -11 q 65 233 65 115 l 65 375 l 26 375 z "},"™":{"ha":814,"x_min":14,"x_max":779,"o":"m 14 884 l 14 972 l 314 972 l 314 884 l 212 884 l 212 478 l 115 478 l 115 884 l 14 884 m 372 478 l 372 972 l 507 972 l 579 625 l 644 972 l 779 972 l 779 478 l 688 478 l 688 829 l 623 478 l 530 478 l 457 827 l 457 478 l 372 478 z "},"◼":{"ha":972,"x_min":0,"x_max":972,"o":"m 0 0 l 0 972 l 972 972 l 972 0 l 0 0 z "}}}
